<svg id="Layer_1" data-name="Layer 1" xmlns="http://www.w3.org/2000/svg" xmlns:xlink="http://www.w3.org/1999/xlink" viewBox="0 0 401.39 456.46"><defs><style>.cls-1{fill:url(#linear-gradient);}.cls-2{fill:url(#linear-gradient-2);}.cls-3{fill:url(#linear-gradient-3);}.cls-4{fill:url(#linear-gradient-4);}.cls-5{fill:url(#linear-gradient-5);}.cls-6{fill:url(#linear-gradient-6);}.cls-7{fill:url(#linear-gradient-7);}.cls-8{fill:url(#linear-gradient-8);}.cls-9{fill:url(#linear-gradient-9);}.cls-10{fill:url(#linear-gradient-10);}.cls-11{fill:url(#linear-gradient-11);}.cls-12{fill:url(#linear-gradient-12);}</style><linearGradient id="linear-gradient" x1="364.25" y1="204.89" x2="364.25" y2="656.81" gradientUnits="userSpaceOnUse"><stop offset="0" stop-color="#6bcce1"/><stop offset="1" stop-color="#2db34a"/></linearGradient><linearGradient id="linear-gradient-2" x1="551.76" y1="204.89" x2="551.76" y2="656.81" xlink:href="#linear-gradient"/><linearGradient id="linear-gradient-3" x1="133.6" y1="38.63" x2="133.6" y2="490.55" xlink:href="#linear-gradient"/><linearGradient id="linear-gradient-4" x1="487.81" y1="204.89" x2="487.81" y2="656.81" xlink:href="#linear-gradient"/><linearGradient id="linear-gradient-5" x1="422" y1="204.89" x2="422" y2="656.81" xlink:href="#linear-gradient"/><linearGradient id="linear-gradient-6" x1="37.92" y1="38.63" x2="37.92" y2="490.55" xlink:href="#linear-gradient"/><linearGradient id="linear-gradient-7" x1="446.79" y1="204.89" x2="446.79" y2="656.82" xlink:href="#linear-gradient"/><linearGradient id="linear-gradient-8" x1="427.35" y1="204.89" x2="427.35" y2="656.81" xlink:href="#linear-gradient"/><linearGradient id="linear-gradient-9" x1="416.96" y1="204.89" x2="416.96" y2="656.81" xlink:href="#linear-gradient"/><linearGradient id="linear-gradient-10" x1="512.11" y1="204.89" x2="512.11" y2="656.81" xlink:href="#linear-gradient"/><linearGradient id="linear-gradient-11" x1="116.36" y1="38.62" x2="116.36" y2="490.55" xlink:href="#linear-gradient"/><linearGradient id="linear-gradient-12" x1="76.83" y1="38.63" x2="76.83" y2="490.55" xlink:href="#linear-gradient"/></defs><title>logo</title><path class="cls-1" d="M476.61,610.18l3.14,7.81,21.12-8.48-8.49-21.12-21.11,8.49,2.76,6.88a257.39,257.39,0,0,1-79.12,12.07H234.54V181.09H333V189h22.76V166.27H333v7.93H227.64V622.73H394.91A263.82,263.82,0,0,0,476.61,610.18Z" transform="translate(-227.64 -166.27)"/><path class="cls-2" d="M498.45,202.17A210.62,210.62,0,0,1,557.61,241c41.61,39,64.53,94,64.53,154.7,0,53.78-17.29,103.69-48.86,141.94l-5.19-5.08-15.92,16.26,16.27,15.92,15.91-16.26-6.12-6C611.06,503,629,451.33,629,395.72c0-62.63-23.69-119.36-66.7-159.73a217.32,217.32,0,0,0-61.49-40.29l2.87-7.78L482.36,180l-7.88,21.35,21.35,7.88Z" transform="translate(-227.64 -166.27)"/><polygon class="cls-3" points="167.26 127.33 167.26 104.57 144.51 104.57 144.51 112.5 107.86 112.5 107.86 248.92 99.92 248.92 99.92 271.68 122.68 271.68 122.68 248.92 114.75 248.92 114.75 119.39 144.51 119.39 144.51 127.33 167.26 127.33"/><path class="cls-4" d="M474.2,304.69l4.1-7.89-20.21-10.48-10.47,20.2L467.82,317l3.19-6.17a97.08,97.08,0,0,1,40.08,62.38l-6.94.35,1.12,22.73L528,395.16l-1.13-22.73-8.87.44A105.68,105.68,0,0,0,474.2,304.69Z" transform="translate(-227.64 -166.27)"/><path class="cls-5" d="M350.28,526l0-7.93,44.61.08c44.25,0,81.18-17.63,103.2-48.69l8.17,4.08,10.19-20.35L496.11,443l-10.18,20.35,5.94,3c-20.82,28.68-55.45,44.93-97,44.93l-44.6-.08v-7.93l-22.75,0,0,22.76Z" transform="translate(-227.64 -166.27)"/><polygon class="cls-6" points="49.3 124.54 49.3 101.78 26.54 101.78 26.54 124.54 34.47 124.54 34.47 409.58 26.54 409.58 26.54 432.33 49.3 432.33 49.3 409.58 41.37 409.58 41.37 124.54 49.3 124.54"/><path class="cls-7" d="M293,596.19h22.75v-7.93h79.18c97.89,0,172.62-55.24,193.68-141.76l8.42,1.35,3.6-22.47-22.48-3.59-3.59,22.47,7.22,1.15c-20.49,83-92.53,136-186.85,136H315.73v-7.93H293Z" transform="translate(-227.64 -166.27)"/><path class="cls-8" d="M276.93,200.74H254.18v22.75h22.75v-7.93h118c93.77,0,165.66,51,186.57,131.06l-7.17,1.21,3.78,22.44,22.44-3.79L596.75,344l-8.45,1.43c-21.5-83.5-96.09-136.8-193.39-136.8h-118Z" transform="translate(-227.64 -166.27)"/><path class="cls-9" d="M327.54,234.07v22.75H350.3v-7.93h44.61c31.06,0,59.8,7.32,83.88,21.25l-4.26,5.73,18.25,13.59,13.59-18.26-18.26-13.59-5.18,7c-25.28-14.8-55.45-22.58-88-22.58H350.3v-7.93Z" transform="translate(-227.64 -166.27)"/><path class="cls-10" d="M530.2,297.83l-18.51,13.24,13.24,18.51,5.65-4.05c11.19,20.8,17.08,44.81,17.08,70.19,0,48.82-19.85,91.34-54.85,118.53l-3.65-6.06-19.49,11.73,11.73,19.5,19.49-11.73-4.5-7.49c37.11-28.48,58.16-73.18,58.16-124.48,0-26.84-6.31-52.26-18.31-74.24l7.19-5.14Z" transform="translate(-227.64 -166.27)"/><polygon class="cls-11" points="65.45 295.47 73.39 295.47 73.39 386.37 144.51 386.37 144.51 394.3 167.26 394.3 167.26 371.54 144.51 371.54 144.51 379.47 80.28 379.47 80.28 295.47 88.21 295.47 88.21 272.71 65.45 272.71 65.45 295.47"/><polygon class="cls-12" points="65.45 164.54 65.45 187.3 88.21 187.3 88.21 164.54 80.28 164.54 80.28 90.44 88.21 90.44 88.21 67.69 65.45 67.69 65.45 90.44 73.39 90.44 73.39 164.54 65.45 164.54"/></svg>